<svg xmlns="http://www.w3.org/2000/svg" viewBox="0 0 24 24" fill="none">
  <defs>
    <linearGradient id="pdfToDocGradient" x1="0%" y1="0%" x2="100%" y2="100%">
      <stop offset="0%" style="stop-color:#8b5cf6;stop-opacity:1" />
      <stop offset="100%" style="stop-color:#7c3aed;stop-opacity:1" />
    </linearGradient>
  </defs>
  <rect width="24" height="24" rx="6" fill="url(#pdfToDocGradient)"/>
  <path d="M14 2H6a2 2 0 0 0-2 2v16a2 2 0 0 0 2 2h12a2 2 0 0 0 2-2V8l-6-6zm4 18H6V4h7v5h5v11z" fill="white"/>
  <path d="M8 12h8v2H8zm0 4h6v2H8zm0-8h4v2H8z" fill="white"/>
  <path d="M16 8l-2-2v2h2z" fill="white"/>
</svg>
