<svg xmlns="http://www.w3.org/2000/svg" viewBox="0 0 24 24" fill="none">
  <defs>
    <linearGradient id="splitGradient" x1="0%" y1="0%" x2="100%" y2="100%">
      <stop offset="0%" style="stop-color:#f97316;stop-opacity:1" />
      <stop offset="100%" style="stop-color:#ea580c;stop-opacity:1" />
    </linearGradient>
  </defs>
  <rect width="24" height="24" rx="6" fill="url(#splitGradient)"/>
  <path d="M19 3H5c-1.1 0-2 .9-2 2v14c0 1.1.9 2 2 2h14c1.1 0 2-.9 2-2V5c0-1.1-.9-2-2-2zM9 17H7v-2h2v2zm0-4H7v-2h2v2zm0-4H7V7h2v2zm4 8h-2v-2h2v2zm0-4h-2v-2h2v2zm0-4h-2V7h2v2zm4 8h-2v-2h2v2zm0-4h-2v-2h2v2zm0-4h-2V7h2v2z" fill="white"/>
</svg> 