<svg xmlns="http://www.w3.org/2000/svg" viewBox="0 0 24 24" fill="none">
  <defs>
    <linearGradient id="qrGradient" x1="0%" y1="0%" x2="100%" y2="100%">
      <stop offset="0%" style="stop-color:#14b8a6;stop-opacity:1" />
      <stop offset="100%" style="stop-color:#0d9488;stop-opacity:1" />
    </linearGradient>
  </defs>
  <rect width="24" height="24" rx="6" fill="url(#qrGradient)"/>
  <path d="M3 11h8V3H3v8zm2-6h4v4H5V5zm8-2v8h8V3h-8zm6 6h-4V5h4v4zM3 21h8v-8H3v8zm2-6h4v4H5v-4zm13-2h3v2h-3v-2zm0-4h3v2h-3v-2zm-2 4h2v2h-2v-2zm-2 0h2v2h-2v-2zm-2-2h2v2h-2v-2zm-2 0h2v2h-2v-2zm-2-2h2v2h-2v-2zm-2 0h2v2h-2v-2z" fill="white"/>
</svg> 